<?xml version="1.0" encoding="UTF-8" standalone="no"?>
<!DOCTYPE svg PUBLIC "-//W3C//DTD SVG 1.1//EN" "http://www.w3.org/Graphics/SVG/1.1/DTD/svg11.dtd">
<svg xmlns="http://www.w3.org/2000/svg" xmlns:xlink="http://www.w3.org/1999/xlink" version="1.1" width="4273.7165pt" height="4965.193pt" viewBox="0 0 4273.7165 4965.193">
<g enable-background="new">
<g id="Layer-1" data-name="Слой 1">
<path transform="matrix(1,0,0,-1,1,4964.193)" d="M 1394.7404 2386.4329 L 935.149 3899.4583 L 473.5984 2386.4329 Z " fill="#2f2483" fill-rule="evenodd"/>
<path transform="matrix(1,0,0,-1,1,4964.193)" stroke-width=".5669" stroke-linecap="butt" stroke-miterlimit="22.925585" stroke-linejoin="miter" fill="none" stroke="#1a1a18" d="M 1394.7404 2386.4329 L 935.149 3899.4583 L 473.5984 2386.4329 Z "/>
<path transform="matrix(1,0,0,-1,1,4964.193)" d="M 3376.959 570.6896 C 2952.924 214.5563 2408.2835 .343 1814.1412 .2835 C 1095.0817 .2117 448.3854 313.7295 .3178 813.0526 L 187.753 1427.6398 L 1661.5794 1427.7875 L 1872.3356 734.0125 L 3230.1024 734.1491 L 3230.6463 733.5536 L 3234.0662 733.536 L 1674.4269 4958.3156 L 1772.096 4962.2966 C 1793.003 4963.149 1814 4962.8977 1835.0459 4962.7917 C 3187.5443 4955.954 4278.351 3841.0198 4271.433 2472.5167 C 4267.5568 1705.8366 3919.9136 1022.2875 3377.1317 570.4985 Z " fill="#2f2483" fill-rule="evenodd"/>
<path transform="matrix(1,0,0,-1,1,4964.193)" stroke-width=".5669" stroke-linecap="butt" stroke-miterlimit="22.925585" stroke-linejoin="miter" fill="none" stroke="#1a1a18" d="M 3376.959 570.6896 C 2952.924 214.5563 2408.2835 .343 1814.1412 .2835 C 1095.0817 .2117 448.3854 313.7295 .3178 813.0526 L 187.753 1427.6398 L 1661.5794 1427.7875 L 1872.3356 734.0125 L 3230.1024 734.1491 L 3230.6463 733.5536 L 3234.0662 733.536 L 1674.4269 4958.3156 L 1772.096 4962.2966 C 1793.003 4963.149 1814 4962.8977 1835.0459 4962.7917 C 3187.5443 4955.954 4278.351 3841.0198 4271.433 2472.5167 C 4267.5568 1705.8366 3919.9136 1022.2875 3377.1317 570.4985 Z "/>
</g>
</g>
</svg>
